<mxfile host="app.diagrams.net" modified="2024-03-12T15:03:20.627Z" agent="Mozilla/5.0 (Windows NT 10.0; Win64; x64) AppleWebKit/537.36 (KHTML, like Gecko) Chrome/122.0.0.0 Safari/537.36" etag="Xh82B1jDx8qTxGBfgBHr" version="24.0.5" type="device">
  <diagram name="Page-1" id="mNQyIBY98x8sQj-iYLF8">
    <mxGraphModel dx="1050" dy="1669" grid="1" gridSize="10" guides="1" tooltips="1" connect="1" arrows="1" fold="1" page="1" pageScale="1" pageWidth="850" pageHeight="1100" math="0" shadow="0">
      <root>
        <mxCell id="0" />
        <mxCell id="1" parent="0" />
        <mxCell id="CKn6F6OK-49W8jwF-CGY-2" value="End User" style="shape=umlActor;verticalLabelPosition=bottom;verticalAlign=top;html=1;outlineConnect=0;sketch=1;curveFitting=1;jiggle=2;" vertex="1" parent="1">
          <mxGeometry x="10" y="100" width="30" height="60" as="geometry" />
        </mxCell>
        <mxCell id="CKn6F6OK-49W8jwF-CGY-11" value="" style="whiteSpace=wrap;html=1;aspect=fixed;fillColor=#dae8fc;strokeColor=#6c8ebf;sketch=1;curveFitting=1;jiggle=2;" vertex="1" parent="1">
          <mxGeometry x="260" y="-30" width="540" height="540" as="geometry" />
        </mxCell>
        <mxCell id="CKn6F6OK-49W8jwF-CGY-3" value="" style="whiteSpace=wrap;html=1;aspect=fixed;sketch=1;curveFitting=1;jiggle=2;rounded=1;glass=1;shadow=1;" vertex="1" parent="1">
          <mxGeometry x="310" y="20" width="200" height="200" as="geometry" />
        </mxCell>
        <mxCell id="CKn6F6OK-49W8jwF-CGY-5" value="Client" style="swimlane;whiteSpace=wrap;html=1;sketch=1;curveFitting=1;jiggle=2;swimlaneFillColor=default;gradientColor=default;" vertex="1" parent="1">
          <mxGeometry x="60" y="60" width="130" height="120" as="geometry" />
        </mxCell>
        <mxCell id="CKn6F6OK-49W8jwF-CGY-7" value="View(JSPs)" style="shape=note;whiteSpace=wrap;html=1;backgroundOutline=1;darkOpacity=0.05;sketch=1;curveFitting=1;jiggle=2;fillColor=#f8cecc;strokeColor=#b85450;gradientColor=#ea6b66;" vertex="1" parent="1">
          <mxGeometry x="630" y="255" width="80" height="170" as="geometry" />
        </mxCell>
        <mxCell id="CKn6F6OK-49W8jwF-CGY-9" value="Model(Business Services Beans)" style="rounded=1;whiteSpace=wrap;html=1;sketch=1;curveFitting=1;jiggle=2;fillColor=#b1ddf0;strokeColor=#10739e;" vertex="1" parent="1">
          <mxGeometry x="300" y="310" width="220" height="60" as="geometry" />
        </mxCell>
        <mxCell id="CKn6F6OK-49W8jwF-CGY-20" value="" style="endArrow=classic;html=1;rounded=0;entryX=0;entryY=0.25;entryDx=0;entryDy=0;exitX=0.997;exitY=0.112;exitDx=0;exitDy=0;exitPerimeter=0;flowAnimation=1;shadow=1;" edge="1" parent="1">
          <mxGeometry relative="1" as="geometry">
            <mxPoint x="189.61000000000013" y="118.44000000000005" as="sourcePoint" />
            <mxPoint x="310" y="115" as="targetPoint" />
          </mxGeometry>
        </mxCell>
        <mxCell id="CKn6F6OK-49W8jwF-CGY-24" value="" style="endArrow=classic;html=1;rounded=0;entryX=1;entryY=0.5;entryDx=0;entryDy=0;exitX=0;exitY=0.5;exitDx=0;exitDy=0;exitPerimeter=0;flowAnimation=1;" edge="1" parent="1" source="CKn6F6OK-49W8jwF-CGY-7" target="CKn6F6OK-49W8jwF-CGY-9">
          <mxGeometry width="50" height="50" relative="1" as="geometry">
            <mxPoint x="560" y="150" as="sourcePoint" />
            <mxPoint x="610" y="100" as="targetPoint" />
          </mxGeometry>
        </mxCell>
        <mxCell id="CKn6F6OK-49W8jwF-CGY-33" value="GetXXX()" style="edgeLabel;html=1;align=center;verticalAlign=middle;resizable=0;points=[];" vertex="1" connectable="0" parent="CKn6F6OK-49W8jwF-CGY-24">
          <mxGeometry x="0.2764" y="-1" relative="1" as="geometry">
            <mxPoint as="offset" />
          </mxGeometry>
        </mxCell>
        <mxCell id="CKn6F6OK-49W8jwF-CGY-28" value="Dispatcher Filter" style="rounded=1;whiteSpace=wrap;html=1;sketch=1;curveFitting=1;jiggle=2;shadow=1;" vertex="1" parent="1">
          <mxGeometry x="340" y="115" width="150" height="30" as="geometry" />
        </mxCell>
        <mxCell id="CKn6F6OK-49W8jwF-CGY-29" value="Interceptors" style="rounded=1;whiteSpace=wrap;html=1;sketch=1;curveFitting=1;jiggle=2;shadow=1;" vertex="1" parent="1">
          <mxGeometry x="340" y="170" width="150" height="30" as="geometry" />
        </mxCell>
        <mxCell id="CKn6F6OK-49W8jwF-CGY-32" value="Controller(Servlet Thread)" style="rounded=1;whiteSpace=wrap;html=1;fillColor=#008a00;fontColor=#0000CC;strokeColor=#005700;sketch=1;curveFitting=1;jiggle=2;shadow=1;" vertex="1" parent="1">
          <mxGeometry x="350" y="40" width="120" height="60" as="geometry" />
        </mxCell>
        <mxCell id="CKn6F6OK-49W8jwF-CGY-34" value="" style="endArrow=classic;html=1;rounded=0;exitX=0.25;exitY=1;exitDx=0;exitDy=0;shadow=1;flowAnimation=1;" edge="1" parent="1">
          <mxGeometry width="50" height="50" relative="1" as="geometry">
            <mxPoint x="414.5" y="220" as="sourcePoint" />
            <mxPoint x="414.5" y="310" as="targetPoint" />
          </mxGeometry>
        </mxCell>
        <mxCell id="CKn6F6OK-49W8jwF-CGY-35" value="" style="endArrow=classic;html=1;rounded=0;exitX=1.008;exitY=0.451;exitDx=0;exitDy=0;exitPerimeter=0;entryX=0;entryY=0;entryDx=50;entryDy=0;entryPerimeter=0;shadow=1;flowAnimation=1;" edge="1" parent="1" source="CKn6F6OK-49W8jwF-CGY-3" target="CKn6F6OK-49W8jwF-CGY-7">
          <mxGeometry width="50" height="50" relative="1" as="geometry">
            <mxPoint x="410" y="260" as="sourcePoint" />
            <mxPoint x="460" y="210" as="targetPoint" />
            <Array as="points">
              <mxPoint x="680" y="110" />
            </Array>
          </mxGeometry>
        </mxCell>
        <mxCell id="CKn6F6OK-49W8jwF-CGY-36" value="" style="endArrow=classic;html=1;rounded=0;shadow=0;flowAnimation=1;" edge="1" parent="1">
          <mxGeometry width="50" height="50" relative="1" as="geometry">
            <mxPoint x="690" y="420" as="sourcePoint" />
            <mxPoint x="100" y="180" as="targetPoint" />
            <Array as="points">
              <mxPoint x="690" y="480" />
              <mxPoint x="100" y="480" />
            </Array>
          </mxGeometry>
        </mxCell>
      </root>
    </mxGraphModel>
  </diagram>
</mxfile>
